# xmcd
#
# Track frame offsets:
#	150
#	11936
#	25134
#	38682
#	47142
#	62733
#	72524
#	86239
#	101745
#	113774
#	124727
#	138684
#	149990
#	164226
#	185546
#	200939
#	216352
#
# Disc length: 3033 seconds
# Revision: 1
# Processed by: cddbd v1.5.2PL0 Copyright (c) Steve Scherf et al.
# Submitted via: dBpowerAMP V12.0
#
DISCID=1d0bd711
DTITLE=The Calgary Fiddlers - Fretless Frenzy
DYEAR=2009
DGENRE=Country
TTITLE0=Lil' Jack
TTITLE1=Finnigans Zapedeato
TTITLE2=Tico Tico
TTITLE3=Willow Springs
TTITLE4=DNA Bouree Medley
TTITLE5=Choctaw
TTITLE6=American Wake
TTITLE7=Rainbow Connection
TTITLE8=Kansas City Kitty
TTITLE9=Air Tune - Bow Valley Teens
TTITLE10=Calgary Wild Cats
TTITLE11=In The Mood
TTITLE12=The Bird Medley
TTITLE13=Pernod Waltz Medley
TTITLE14=Natalie's Jigs
TTITLE15=Remembering Norm
TTITLE16=MacArthur's Dream
EXTD=
EXTT0=
EXTT1=
EXTT2=
EXTT3=
EXTT4=
EXTT5=
EXTT6=
EXTT7=
EXTT8=
EXTT9=
EXTT10=
EXTT11=
EXTT12=
EXTT13=
EXTT14=
EXTT15=
EXTT16=
PLAYORDER=
